<svg width="433" height="82" viewBox="0 0 433 82" fill="none" xmlns="http://www.w3.org/2000/svg">
<path d="M176.687 65.4941C176.687 53.3309 186.732 49.9659 196.22 48.2588C203.787 46.8964 208.875 46.4368 215.326 45.8623V40.823C215.326 33.7319 211.042 31.5816 204.739 31.5816C198.436 31.5816 193.364 33.7155 193.364 40.1336V41.3811H179.838V38.7876C179.838 27.4123 187.602 21.1091 205.067 21.1091C222.532 21.1091 229.509 27.2974 229.509 40.2649V80.8089H215.655V73.2418C214.424 76.5083 208.564 81.9251 195.498 81.9251C185.583 81.9251 176.687 77.1977 176.687 65.4777V65.4941ZM200.225 71.469C209.466 71.469 215.326 65.2807 215.326 60.5369V54.9231C212.323 55.1529 205.1 56.1214 203.212 56.4005C194.283 57.73 191.099 60.5369 191.099 64.2466C191.099 68.7606 194.135 71.4526 200.225 71.4526V71.469Z" fill="#101840"/>
<path d="M108.665 1.96973H123.421V40.9379L156.973 1.96973H174.438L143.677 37.458L177.474 80.8253H160.354L134.567 47.9305L123.421 60.8816V80.8253H108.665V1.96973V1.96973Z" fill="#101840"/>
<path d="M247.368 0C251.652 0 255.477 3.4963 255.477 8.1088C255.477 12.7213 251.652 16.2176 247.368 16.2176C243.084 16.2176 239.144 12.7213 239.144 8.1088C239.144 3.4963 242.969 0 247.368 0Z" fill="#101840"/>
<path d="M254.557 22.3074H240.146V80.8089H254.557V22.3074Z" fill="#101840"/>
<path d="M265.21 1.96973H279.622V48.4886L303.505 22.2417H319.493L295.495 47.356L322.645 80.8089H306.641L286.697 56.4825L279.606 63.9183V80.8089H265.194V1.96973H265.21Z" fill="#101840"/>
<path d="M382.427 62.3426H395.263C396.051 68.5309 400.778 71.0095 407.541 71.0095C413.729 71.0095 418.129 68.8756 418.129 63.9184C418.129 60.3072 415.765 58.518 411.251 57.6152L400.434 55.2515C388.599 52.5431 383.986 46.3548 383.986 38.4758C383.986 27.4288 393.457 21.1256 407.525 21.1256C422.396 21.1256 430.833 28.2167 431.063 40.6097H419.113C418.211 34.1916 413.926 32.0577 407.623 32.0577C401.32 32.0577 397.939 34.1916 397.939 38.246C397.939 41.6274 400.302 43.7613 405.03 44.6641L416.175 47.1427C425.417 49.2766 432.967 53.331 432.967 63.5901C432.967 76.5412 421.034 81.958 407.279 81.958C392.292 81.958 382.493 75.5399 382.394 62.359L382.427 62.3426Z" fill="#101840"/>
<path d="M322.497 65.4941C322.497 53.3309 332.543 49.9659 342.03 48.2588C349.598 46.8964 355.687 46.601 361.137 45.8623V40.823C361.137 33.7319 356.853 31.5816 350.55 31.5816C344.246 31.5816 339.174 33.7155 339.174 40.1336V41.3811H325.649V38.7876C325.649 27.4123 333.413 21.1091 350.878 21.1091C368.343 21.1091 375.319 27.2974 375.319 40.2649V80.8089H361.465V73.2418C360.234 76.5083 354.374 81.9251 341.308 81.9251C331.394 81.9251 322.497 77.1977 322.497 65.4777V65.4941ZM346.036 71.469C355.277 71.469 361.137 65.2807 361.137 60.5369V54.6441C358.33 55.0216 350.911 56.1214 349.023 56.4005C340.093 57.73 336.909 60.5369 336.909 64.2466C336.909 68.7606 339.946 71.4526 346.036 71.4526V71.469Z" fill="#101840"/>
<path d="M61.9877 41.2886L56.9479 51.2882C54.418 56.308 49.2782 59.4779 43.6684 59.4779H10.1296C4.54983 59.4579 0 64.0277 0 69.5875C0 75.1473 4.54983 79.7172 10.1296 79.7172H78.5571C82.607 79.7172 85.0069 75.1873 82.727 71.8375L61.9977 41.2886H61.9877Z" fill="#99B3FF"/>
<path d="M73.4673 2.22998H15.2794C6.83975 2.22998 0 9.06973 0 17.5094V69.5875C0 64.0277 4.54983 59.4579 10.1296 59.4579H43.6784C49.2882 59.4579 54.428 56.288 56.9579 51.2682L77.9671 9.52971C79.6571 6.17984 77.2272 2.22998 73.4673 2.22998Z" fill="#3366FF"/>
<path d="M45.2984 33.6989C48.6983 33.6989 51.4582 31.5489 51.4582 28.889C51.4582 26.2291 48.6983 24.0792 45.2984 24.0792C41.8986 24.0792 39.1387 26.2291 39.1387 28.889C39.1387 31.5489 41.8986 33.6989 45.2984 33.6989Z" fill="#DAFF86"/>
</svg>
